<svg aria-hidden="true" style="position: absolute; width: 0; height: 0; overflow: hidden;" version="1.1" xmlns="http://www.w3.org/2000/svg" xmlns:xlink="http://www.w3.org/1999/xlink">
<defs>
<symbol id="icon-subtract" viewBox="0 0 32 32">
<path fill="#128c76" style="fill: var(--color1, #128c76)" d="M16 32c8.837 0 16-7.163 16-16s-7.163-16-16-16c-8.837 0-16 7.163-16 16 0 1.759 0.284 3.451 0.808 5.034l4.416-3.864c0.115-0.1 0.265-0.151 0.417-0.14s0.294 0.082 0.393 0.198l4.41 5.145 12.961-12.241-3.762-0.107c-0.315-0.009-0.564-0.272-0.555-0.588s0.272-0.564 0.587-0.555l5.141 0.147c0.315 0.009 0.564 0.272 0.555 0.588l-0.147 5.141c-0.009 0.316-0.272 0.564-0.588 0.555s-0.564-0.272-0.555-0.588l0.108-3.762-13.397 12.653c-0.114 0.107-0.266 0.163-0.422 0.155s-0.302-0.080-0.404-0.199l-4.424-5.162-4.306 3.767c2.417 5.769 8.117 9.822 14.764 9.822z"></path>
</symbol>
<symbol id="icon-instagram" viewBox="0 0 34 32">
<path d="M10.988 0h12c5.522 0 10 4.478 10 10v12c0 5.522-4.478 10-10 10h-12c-5.522 0-10-4.478-10-10v-12c0-5.522 4.478-10 10-10zM22.988 29c3.86 0 7-3.14 7-7v-12c0-3.86-3.14-7-7-7h-12c-3.86 0-7 3.14-7 7v12c0 3.86 3.14 7 7 7h12z"></path>
<path d="M8.988 16c0-4.418 3.582-8 8-8s8 3.582 8 8c0 4.418-3.582 8-8 8s-8-3.582-8-8zM11.988 16c0 2.756 2.244 5 5 5s5-2.244 5-5c0-2.758-2.244-5-5-5s-5 2.242-5 5z"></path>
<path d="M26.654 7.4c0 0.589-0.477 1.066-1.066 1.066s-1.066-0.477-1.066-1.066c0-0.589 0.477-1.066 1.066-1.066s1.066 0.477 1.066 1.066z"></path>
</symbol>
<symbol id="icon-twitter" viewBox="0 0 42 32">
<path d="M40.988 3.873c-1.454 0.638-3.004 1.061-4.62 1.266 1.662-0.992 2.931-2.552 3.527-4.432-1.55 0.924-3.261 1.577-5.084 1.941-1.472-1.567-3.569-2.537-5.857-2.537-4.439 0-8.013 3.603-8.013 8.020 0 0.636 0.054 1.247 0.186 1.828-6.666-0.325-12.565-3.52-16.527-8.387-0.692 1.2-1.098 2.574-1.098 4.053 0 2.777 1.43 5.238 3.562 6.664-1.288-0.024-2.552-0.398-3.623-0.988 0 0.024 0 0.056 0 0.088 0 3.896 2.779 7.133 6.424 7.878-0.653 0.178-1.364 0.264-2.102 0.264-0.513 0-1.032-0.029-1.518-0.137 1.039 3.175 3.987 5.51 7.492 5.586-2.728 2.134-6.192 3.42-9.942 3.42-0.658 0-1.288-0.029-1.919-0.11 3.552 2.291 7.761 3.598 12.3 3.598 14.755 0 22.821-12.222 22.821-22.817 0-0.354-0.012-0.697-0.029-1.036 1.591-1.129 2.928-2.54 4.019-4.163z"></path>
</symbol>
<symbol id="icon-facebook" viewBox="0 0 16 32">
<path d="M12.979 5.396h2.899v-5.049c-0.5-0.069-2.22-0.224-4.223-0.224-4.179 0-7.042 2.629-7.042 7.46v4.447h-4.612v5.644h4.612v14.201h5.654v-14.2h4.425l0.703-5.644h-5.129v-3.888c0.001-1.631 0.441-2.748 2.713-2.748z"></path>
</symbol>
<symbol id="icon-chevronUp" viewBox="0 0 32 32">
<path fill="none" stroke="#fff" style="stroke: var(--color2, #fff)" stroke-linejoin="round" stroke-linecap="round" stroke-miterlimit="4" stroke-width="2.6667" d="M6 20l10-10 10 10"></path>
</symbol>
<symbol id="icon-chevronRight" viewBox="0 0 32 32">
<path fill="none" stroke="#fff" style="stroke: var(--color2, #fff)" stroke-linejoin="round" stroke-linecap="round" stroke-miterlimit="4" stroke-width="2.6667" d="M12 6l10 10-10 10"></path>
</symbol>
<symbol id="icon-chevronDown" viewBox="0 0 32 32">
<path stroke-linejoin="round" stroke-linecap="round" stroke-miterlimit="4" stroke-width="2" d="M26 12l-10 10-10-10"></path>
</symbol>
</defs>
</svg>
